<svg width="1919" height="320" viewBox="0 0 1919 320" fill="none" xmlns="http://www.w3.org/2000/svg">
<g clip-path="url(#clip0_124_4)">
<path d="M-1 163.849H44.7333C90.4667 163.849 181.667 163.849 273.667 174.813C364.733 185.366 456.333 207.908 547 207.6C639 207.908 731 185.366 821.667 147.455C913.267 109.544 1004.33 54.2152 1096.33 65.486C1187.53 76.7568 1279 152.578 1371 169.28C1461.8 185.366 1553.67 142.332 1644.33 136.492C1736.2 131.061 1827 163.849 1873.67 180.243L1919 196.637V295H1873.27C1827.53 295 1736.33 295 1644.33 295C1553.27 295 1461.67 295 1371 295C1279 295 1187 295 1096.33 295C1004.73 295 913.667 295 821.667 295C730.467 295 639 295 547 295C456.2 295 364.333 295 273.667 295C181.8 295 91 295 44.3333 295H-1V163.849Z" fill="#788BFF"/>
<path d="M-1 262.917H52.3333C105.667 262.917 212.333 262.917 319 252.217C425.667 241.917 532.333 219.917 639 193.617C745.667 166.917 852.333 134.917 959 118.917C1065.67 102.917 1172.33 102.917 1279 129.617C1385.67 155.917 1492.33 209.917 1599 225.617C1705.67 241.917 1812.33 219.917 1865.67 209.617L1919 198.917V294.917H1865.67C1812.33 294.917 1705.67 294.917 1599 294.917C1492.33 294.917 1385.67 294.917 1279 294.917C1172.33 294.917 1065.67 294.917 959 294.917C852.333 294.917 745.667 294.917 639 294.917C532.333 294.917 425.667 294.917 319 294.917C212.333 294.917 105.667 294.917 52.3333 294.917H-1V262.917Z" fill="#5465FF"/>
</g>
<defs>
<clipPath id="clip0_124_4">
<rect width="1920" height="320" fill="white" transform="translate(-1)"/>
</clipPath>
</defs>
</svg>
