<svg width="1919" height="320" viewBox="0 0 1919 320" fill="none" xmlns="http://www.w3.org/2000/svg">
<g clip-path="url(#clip0_124_10)">
<path d="M0 205L45.7095 178.3C91.419 152 182.572 98 274.524 71.7C365.543 45 457.095 45 547.715 82.3C639.667 120 731.619 194 822.238 231.7C913.79 269 1004.81 269 1096.76 253C1187.91 237 1279.33 205 1371.29 221C1462.04 237 1553.86 301 1644.48 317C1736.3 333 1827.05 301 1873.69 285L1919 269V45H1873.29C1827.58 45 1736.43 45 1644.48 45C1553.46 45 1461.9 45 1371.29 45C1279.33 45 1187.38 45 1096.76 45C1005.21 45 914.19 45 822.238 45C731.086 45 639.667 45 547.715 45C456.962 45 365.143 45 274.524 45C182.705 45 91.9521 45 45.3097 45H0V205Z" fill="#788BFF"/>
<path d="M0 256L53.3056 245.3C106.611 235 213.222 213 319.833 224C426.444 235 533.056 277 639.667 256C746.278 235 852.889 149 959.5 101.3C1066.11 53 1172.72 43 1279.33 85.3C1385.94 128 1492.56 224 1599.17 261.3C1705.78 299 1812.39 277 1865.69 266.7L1919 256V0H1865.69C1812.39 0 1705.78 0 1599.17 0C1492.56 0 1385.94 0 1279.33 0C1172.72 0 1066.11 0 959.5 0C852.889 0 746.278 0 639.667 0C533.056 0 426.444 0 319.833 0C213.222 0 106.611 0 53.3056 0H0V256Z" fill="#5465FF"/>
</g>
<defs>
<clipPath id="clip0_124_10">
<rect width="1919" height="320" fill="white"/>
</clipPath>
</defs>
</svg>
