<svg width="1919" height="227" viewBox="0 0 1919 227" fill="none" xmlns="http://www.w3.org/2000/svg">
<g clip-path="url(#clip0_124_4)">
<path d="M0 90.4701H45.7095C91.419 90.4701 182.572 90.4701 274.524 100.404C365.543 109.966 457.095 130.39 547.715 130.112C639.667 130.39 731.619 109.966 822.238 75.6162C913.79 41.2664 1004.81 -8.86568 1096.76 1.34641C1187.91 11.5585 1279.33 80.258 1371.29 95.3905C1462.04 109.966 1553.86 70.9743 1644.48 65.6826C1736.3 60.7622 1827.05 90.4701 1873.69 105.324L1919 120.178V209.302H1873.29C1827.58 209.302 1736.43 209.302 1644.48 209.302C1553.46 209.302 1461.9 209.302 1371.29 209.302C1279.33 209.302 1187.38 209.302 1096.76 209.302C1005.21 209.302 914.19 209.302 822.238 209.302C731.086 209.302 639.667 209.302 547.715 209.302C456.962 209.302 365.143 209.302 274.524 209.302C182.705 209.302 91.9521 209.302 45.3097 209.302H0V90.4701Z" fill="#788BFF"/>
<path d="M0 199.467H53.3056C106.611 199.467 213.222 199.467 319.833 190.26C426.444 181.398 533.056 162.469 639.667 139.841C746.278 116.868 852.889 89.3349 959.5 75.5684C1066.11 61.802 1172.72 61.802 1279.33 84.7748C1385.94 107.403 1492.56 153.865 1599.17 167.374C1705.78 181.398 1812.39 162.469 1865.69 153.607L1919 144.401V227H1865.69C1812.39 227 1705.78 227 1599.17 227C1492.56 227 1385.94 227 1279.33 227C1172.72 227 1066.11 227 959.5 227C852.889 227 746.278 227 639.667 227C533.056 227 426.444 227 319.833 227C213.222 227 106.611 227 53.3056 227H0V199.467Z" fill="#5465FF"/>
</g>
<defs>
<clipPath id="clip0_124_4">
<rect width="1919" height="227" fill="white"/>
</clipPath>
</defs>
</svg>
